<?xml version="1.0" standalone="no"?><!DOCTYPE svg PUBLIC "-//W3C//DTD SVG 1.1//EN" "http://www.w3.org/Graphics/SVG/1.1/DTD/svg11.dtd"><svg t="1723950635275" class="icon" viewBox="0 0 1024 1024" version="1.1" xmlns="http://www.w3.org/2000/svg" p-id="2400" xmlns:xlink="http://www.w3.org/1999/xlink" width="40" height="40"><path d="M512 74.472727L135.028364 325.818182 512 577.163636 888.971636 325.818182 512 74.472727z m12.893091-47.290182l418.909091 279.272728a23.272727 23.272727 0 0 1 0 38.725818l-418.909091 279.272727a23.272727 23.272727 0 0 1-25.786182 0l-418.909091-279.272727a23.272727 23.272727 0 0 1 0-38.725818l418.909091-279.272728a23.272727 23.272727 0 0 1 25.786182 0zM512 763.298909l406.016-270.661818a23.272727 23.272727 0 1 1 25.786182 38.725818l-418.909091 279.272727a23.272727 23.272727 0 0 1-25.786182 0l-418.909091-279.272727a23.272727 23.272727 0 1 1 25.786182-38.725818L512 763.298909z m406.016-84.48a23.272727 23.272727 0 1 1 25.786182 38.725818l-418.909091 279.272728a23.272727 23.272727 0 0 1-25.786182 0l-418.909091-279.272728a23.272727 23.272727 0 1 1 25.786182-38.725818L512 949.480727l406.016-270.661818z"  p-id="2401"></path></svg>