<?xml version="1.0" standalone="no"?><!DOCTYPE svg PUBLIC "-//W3C//DTD SVG 1.1//EN" "http://www.w3.org/Graphics/SVG/1.1/DTD/svg11.dtd"><svg t="1723951150558" class="icon" viewBox="0 0 1024 1024" version="1.1" xmlns="http://www.w3.org/2000/svg" p-id="2944" width="40" height="40" xmlns:xlink="http://www.w3.org/1999/xlink"><path d="M238.63296 876.09344a95.232 95.232 0 0 1-95.10912-95.0272V258.99008c0-52.4288 42.5984-95.0272 95.10912-95.0272h386.17088l192.512 192.38912v424.5504c0 52.4288-42.68032 95.0272-95.15008 95.0272H238.63296v0.12288z m0-666.99264a49.9712 49.9712 0 0 0-49.93024 49.9712v521.87136a49.9712 49.9712 0 0 0 49.9712 49.9712H722.1248a49.9712 49.9712 0 0 0 49.93024-49.9712v-354.304h-122.4704c-28.672 0-51.32288-5.3248-67.584-15.9744-18.26816-12.04224-27.56608-30.5152-27.56608-54.96832 0-0.90112-1.10592-87.77728-0.69632-145.03936v-1.6384H238.63296v0.08192z m361.0624 122.4704a49.9712 49.9712 0 0 0 49.88928 49.9712h124.7232L599.69536 206.848v124.7232z"  p-id="2945"></path><path d="M335.38048 561.84832a22.56896 22.56896 0 0 1 0-45.13792h290.07872a22.56896 22.56896 0 0 1 0 45.13792H335.38048zM335.38048 682.72128a22.56896 22.56896 0 0 1 0-45.13792h290.07872a22.56896 22.56896 0 0 1 0 45.13792H335.38048z"  p-id="2946"></path></svg>