<?xml version="1.0" standalone="no"?><!DOCTYPE svg PUBLIC "-//W3C//DTD SVG 1.1//EN" "http://www.w3.org/Graphics/SVG/1.1/DTD/svg11.dtd"><svg t="1723447356794" class="icon" viewBox="0 0 1051 1024" version="1.1" xmlns="http://www.w3.org/2000/svg" p-id="35751" width="20.52734375" height="20" xmlns:xlink="http://www.w3.org/1999/xlink"><path d="M486.154743 278.849771H154.815161c-35.847804 0-65.014676 29.166872-65.014676 65.014676v550.287174c0 35.847804 29.166872 65.014676 65.014676 65.014676h481.494679c35.855345 0 65.022217-29.166872 65.022217-65.014676V517.387727l-6.36423-6.356688 1.063219-6.168176-209.876303-226.013092z m8.822451 49.654563l163.019286 173.900308H533.132409a38.215539 38.215539 0 0 1-38.162755-38.162755V328.504334z m179.495402 565.639747a38.215539 38.215539 0 0 1-38.170296 38.170295H154.815161a38.207999 38.207999 0 0 1-38.162756-38.170295V343.864447a38.207999 38.207999 0 0 1 38.162756-38.162756H468.117733v158.532655c0 35.847804 29.166872 65.014676 65.014676 65.014676h141.340187v364.895059z" p-id="35752" fill="#d81e06"></path><path d="M873.294443 790.966649V414.210296l-6.36423-6.356689 1.063218-6.168175-209.876302-226.013093H326.777546c-34.580991 0-62.948564 27.146003-64.909108 61.244398H288.803305a38.215539 38.215539 0 0 1 37.974241-34.392477h313.302572v158.540196c0 35.847804 29.166872 65.014676 65.022217 65.014676h141.340187v364.887517a38.215539 38.215539 0 0 1-38.170296 38.170296h-65.014676v26.859461h65.014676c35.847804-0.007541 65.022217-29.174412 65.022217-65.029757zM705.102335 399.21967a38.207999 38.207999 0 0 1-38.170296-38.162755v-135.730013l163.026827 173.892768H705.102335z" p-id="35753" fill="#d81e06"></path><path d="M970.552537 88.986104a15.081113 15.081113 0 0 0-21.324693 0l-96.526661 96.526661a15.081113 15.081113 0 1 0 21.324693 21.324693L970.552537 110.310798a15.081113 15.081113 0 0 0 0-21.324694zM798.514746 38.268323a15.081113 15.081113 0 0 0-15.081112 15.081113V189.863666a15.081113 15.081113 0 1 0 30.162225 0V53.349436a15.081113 15.081113 0 0 0-15.081113-15.081113zM1013.812708 246.025729h-136.51423a15.081113 15.081113 0 1 0 0 30.162225h136.51423a15.081113 15.081113 0 1 0 0-30.162225z" p-id="35754" fill="#d81e06"></path></svg>