<?xml version="1.0" standalone="no"?><!DOCTYPE svg PUBLIC "-//W3C//DTD SVG 1.1//EN" "http://www.w3.org/Graphics/SVG/1.1/DTD/svg11.dtd"><svg t="1723447282836" class="icon" viewBox="0 0 1024 1024" version="1.1" xmlns="http://www.w3.org/2000/svg" p-id="31872" xmlns:xlink="http://www.w3.org/1999/xlink" width="20" height="20"><path d="M512 0a512 512 0 1 1 0 1024A512 512 0 0 1 512 0zM369.664 305.737143a45.129143 45.129143 0 0 0-63.853714 63.926857l140.434285 140.434286-140.434285 141.165714a45.129143 45.129143 0 0 0 63.853714 63.926857l141.165714-140.507428 141.165715 143.652571a44.032 44.032 0 1 0 60.635428-63.853714L572.123429 515.949714l140.434285-140.507428a44.032 44.032 0 0 0-60.635428-63.853715l-141.165715 141.092572z" fill="#E75252" p-id="31873"></path></svg>