<?xml version="1.0" standalone="no"?><!DOCTYPE svg PUBLIC "-//W3C//DTD SVG 1.1//EN" "http://www.w3.org/Graphics/SVG/1.1/DTD/svg11.dtd"><svg t="1723950893369" class="icon" viewBox="0 0 1024 1024" version="1.1" xmlns="http://www.w3.org/2000/svg" p-id="12146" width="40" height="40" xmlns:xlink="http://www.w3.org/1999/xlink"><path d="M202.712615 885.444923c-64.984615 0-117.366154-52.775385-117.366153-117.366154v-512c0-64.984615 52.381538-117.366154 117.366153-117.366154h618.732308c64.590769 0 117.366154 52.381538 117.366154 117.366154v512c0 64.590769-52.775385 117.366154-117.366154 117.366154z m501.169231-448c65.772308 0 127.212308 16.541538 170.929231 41.747692v-223.310769c0-29.144615-24.024615-53.169231-53.563077-53.169231H202.515692c-29.144615 0-53.169231 24.024615-53.16923 53.169231v344.615385a288.649846 288.649846 0 0 1 226.067692 62.621538 351.783385 351.783385 0 0 1 328.467692-225.673846zM320.118154 287.980308c52.775385 0 96.098462 42.929231 96.098461 96.098461 0 52.775385-43.323077 96.098462-96.098461 96.098462-53.169231 0-96.098462-43.323077-96.098462-96.098462 0-53.169231 42.929231-96.098462 96.098462-96.098461z m-32.098462 95.901538c0 17.723077 14.178462 32.295385 31.901539 32.295385 17.723077 0 32.295385-14.572308 32.295384-32.295385 0-17.723077-14.572308-31.901538-32.295384-31.901538-17.723077 0-31.901538 14.178462-31.901539 31.901538z m586.791385 177.703385c-5.513846-8.270769-21.267692-21.661538-43.716923-33.083077-34.264615-16.935385-77.981538-27.175385-127.212308-27.175385-121.698462 0-228.824615 76.406154-270.178461 188.652308l-14.178462 38.596923c-7.483077 21.267692-34.264615 27.963077-51.2 12.996923-16.541538-14.572308-28.750769-24.812308-36.233846-31.113846a223.586462 223.586462 0 0 0-140.209231-49.230769c-14.178462 0-28.750769 1.575385-42.535384 4.332307v102.4c0 29.538462 24.024615 53.563077 53.16923 53.563077h618.732308c29.538462 0 53.563077-24.024615 53.563077-53.563077z" p-id="12147"></path></svg>