<?xml version="1.0" standalone="no"?><!DOCTYPE svg PUBLIC "-//W3C//DTD SVG 1.1//EN" "http://www.w3.org/Graphics/SVG/1.1/DTD/svg11.dtd"><svg t="1723446754829" class="icon" viewBox="0 0 1024 1024" version="1.1" xmlns="http://www.w3.org/2000/svg" p-id="19355" xmlns:xlink="http://www.w3.org/1999/xlink" width="20" height="20"><path d="M129.75 101.68c0 19.68 15.95 35.64 35.64 35.64h10.14c-0.31 7.76-0.51-2.49-0.51 2.19 0 167.53 95.32 311.87 228.08 365.62-128.79 54.85-223.09 203.97-232.25 381.55h-5.46c-19.68 0-35.64 15.96-35.64 35.64s15.95 35.64 35.64 35.64h693.12c19.68 0 35.64-15.95 35.64-35.64 0-19.68-15.95-35.64-35.64-35.64h-5.46c-9.26-175.1-101.32-322.72-227.47-379.26 135.91-52.26 233.98-199.58 233.98-369.6v-0.5c19.16 0 34.69-15.53 34.69-34.69v-0.95c0-19.68-15.95-35.64-35.64-35.64H165.39c-19.68 0.01-35.64 15.96-35.64 35.64z m619.33 625.53H285.2c40.59-106.81 129.09-188.14 232.04-188.14 102.75 0.01 191.15 81.23 231.84 188.14z m-1.12-397.87c-2.03 11.45-12.21 11.15-24.01 11.15H320.6c-11.8 0-21.87 0.3-24.01-10.95L262.1 158.32h518.72l-32.86 171.02z m112.32-192.02h3.19c-1.27 3.87-2.55 12.16-3.19 0z" fill="#FF8820" p-id="19356"></path></svg>