<?xml version="1.0" standalone="no"?><!DOCTYPE svg PUBLIC "-//W3C//DTD SVG 1.1//EN" "http://www.w3.org/Graphics/SVG/1.1/DTD/svg11.dtd"><svg t="1722414742146" class="icon" viewBox="0 0 1024 1024" version="1.1" xmlns="http://www.w3.org/2000/svg" p-id="9130" xmlns:xlink="http://www.w3.org/1999/xlink" width="20" height="20"><path d="M218.444108 271.816649l66.712216-80.06573h453.687352l66.712216 80.06573H218.444108z m400.300973 373.621621v106.745081H405.254919v-106.745081H245.123459l248.541406-259.030486a25.240216 25.240216 0 0 1 36.67027-0.055352l248.527568 259.085838h-160.103784z m252.042378-369.193513l-77.076756-115.615135c-8.164324-12.246486-26.693189-22.251243-41.305946-22.251244H271.595243c-14.322162 0-33.113946 9.977081-41.305946 22.251244l-77.076756 115.615135c-8.164324 12.246486-14.834162 34.234811-14.834163 48.985946V832.484324c0 29.391568 23.801081 53.137297 53.137298 53.137298h640.968648A53.275676 53.275676 0 0 0 885.621622 832.484324V325.244541c0-15.027892-6.642162-36.725622-14.834163-48.999784z" fill="#E26F6F" p-id="9131"></path></svg>