<?xml version="1.0" standalone="no"?><!DOCTYPE svg PUBLIC "-//W3C//DTD SVG 1.1//EN" "http://www.w3.org/Graphics/SVG/1.1/DTD/svg11.dtd"><svg t="1723446445367" class="icon" viewBox="0 0 1024 1024" version="1.1" xmlns="http://www.w3.org/2000/svg" p-id="7752" width="20" height="20" xmlns:xlink="http://www.w3.org/1999/xlink"><path d="M971 126.8c-2.6 84.9-21 166.5-51.8 245.6-36.8 94.6-90.6 177.9-166 246.7-6.1 5.6-8 11.6-7.2 19.4 2.6 25.5 4.7 51 7.3 76.4 6.1 59.4-14.7 107.9-62.8 142.4-51.6 37-105.2 71.1-158.4 105.7-33.5 21.8-74.8 2-78.5-37.6-4.3-45.5-7.7-91-10.8-136.6-1.6-22.8-1-23-23.1-25.9-58.9-7.7-105-35.5-136.6-86-16.3-26-24.4-54.7-27.2-84.9-0.8-9.1-4.5-11.4-13.1-11.8-47.6-2.6-95.3-5.4-142.9-9-39.6-3-59.7-44.5-38.4-79.2 14.9-24.4 30.8-48.2 46.2-72.2 16.6-25.9 33-51.9 49.7-77.8 30.4-47.4 74.2-73 130.3-73.4 32.1-0.3 64.3 5.4 96.4 8.8 6.1 0.7 10.4-0.2 14.6-4.9C473.3 189.6 565.5 133.6 670 96.1c59-21.2 119.8-35 182.1-41.4 31.4-3.2 63.1-4.4 94.4 1.4 17.1 3.2 18 3.9 20.6 20.5 2.6 16.6 4.7 33.3 3.9 50.2zM791.1 336.1c0.7-56-45.9-104.1-101.2-105-57.5-0.9-107.3 40.7-108.7 105.6-1.1 54.2 48.2 103.3 103.2 103.6 58.6 0.5 106-45.8 106.7-104.2z" p-id="7753" fill="#1afa29"></path><path d="M172.8 655.6c14.1 0.2 21.9 6.4 27 20.7 19.8 56.2 55.9 98.8 108.2 127.7 11.5 6.4 23.7 11.5 36.3 15.8 22.6 7.7 27.7 29.6 11 46.4-24.8 24.9-49.9 49.6-74.7 74.5-8.2 8.2-17.2 12.1-28.8 7.9-11.7-4.3-17.4-13-18-25.1-0.4-7.7-0.2-15.3-0.4-23-0.3-14.1-0.5-14.2-13.5-9.9-27.9 9.2-55.7 18.5-83.6 27.7-8.2 2.7-16.5 3.8-24.5-0.7-11.8-6.6-16.2-18.5-11.5-33.1 9.3-28.5 19-56.9 28.5-85.3 4.1-12.3 3.9-12.6-9.5-12.8-8.1-0.1-16.2 0-24.2-0.4-11.7-0.6-20.1-6.2-24.5-17.3-4.2-10.8-1.5-20.2 6.4-28.1 25.9-25.9 51.9-51.7 77.9-77.6 5.1-5.1 11.2-8 17.9-7.4z" p-id="7754" fill="#1afa29"></path></svg>