<?xml version="1.0" standalone="no"?><!DOCTYPE svg PUBLIC "-//W3C//DTD SVG 1.1//EN" "http://www.w3.org/Graphics/SVG/1.1/DTD/svg11.dtd"><svg t="1723447206848" class="icon" viewBox="0 0 1024 1024" version="1.1" xmlns="http://www.w3.org/2000/svg" p-id="30790" width="20" height="20" xmlns:xlink="http://www.w3.org/1999/xlink"><path d="M512 938.666667c235.648 0 426.666667-191.018667 426.666667-426.666667S747.648 85.333333 512 85.333333 85.333333 276.352 85.333333 512s191.018667 426.666667 426.666667 426.666667z m0-85.333334a341.333333 341.333333 0 1 1 0-682.666666 341.333333 341.333333 0 0 1 0 682.666666z" fill="#3F92FF" p-id="30791"></path><path d="M505.472 344.746667a38.4 38.4 0 0 1 42.837333 7.765333l136.362667 136.362667a38.570667 38.570667 0 1 1-54.570667 54.570666l-76.373333-76.416v230.656a35.541333 35.541333 0 1 1-71.082667 0V468.48l-76.586666 76.544a38.613333 38.613333 0 0 1-54.528-54.613333L487.893333 354.133333a37.674667 37.674667 0 0 1 17.578667-9.386666z" fill="#3F92FF" p-id="30792"></path></svg>