<?xml version="1.0" standalone="no"?><!DOCTYPE svg PUBLIC "-//W3C//DTD SVG 1.1//EN" "http://www.w3.org/Graphics/SVG/1.1/DTD/svg11.dtd"><svg t="1723951228339" class="icon" viewBox="0 0 1024 1024" version="1.1" xmlns="http://www.w3.org/2000/svg" p-id="6157" width="40" height="40" xmlns:xlink="http://www.w3.org/1999/xlink"><path d="M436.271266 755.715868c-4.519811 0-8.779332-1.769732-11.992826-4.985658L300.511506 626.964492c-6.613082-6.613082-6.613082-17.373785 0-23.986868l123.759636-123.558945c3.220791-3.222008 7.480312-4.99174 12.000124-4.99174 4.519811 0 8.778116 1.770949 11.992826 4.985658l11.994042 11.992826L336.492416 615.171141l99.578159 99.576942 123.807072-123.80464 12.193517 12.076751c3.173355 3.172139 4.943088 7.43166 4.943088 11.951471s-1.769732 8.779332-4.985658 11.992826L448.264092 750.730209C445.049382 753.946135 440.791077 755.715868 436.271266 755.715868zM477.459203 590.762214c-4.519811 0-8.778116-1.769732-11.992826-4.985658-3.21471-3.21471-4.985658-7.474231-4.985658-11.992826s1.769732-8.779332 4.984442-11.992826l123.765718-123.766934c3.21471-3.21471 7.474231-4.984442 11.992826-4.984442s8.779332 1.770949 11.992826 4.984442c3.215926 3.21471 4.985658 7.475447 4.985658 11.994042 0 4.518595-1.769732 8.779332-4.985658 11.994042L489.453244 585.776555C486.238535 588.992481 481.979014 590.762214 477.459203 590.762214zM642.213382 549.571844c-4.519811 0-8.779332-1.769732-11.994042-4.984442l-11.992826-11.994042L741.992232 408.828859l-99.579375-99.578159L518.647139 433.016418l-11.992826-11.994042c-6.613082-6.613082-6.613082-17.373785 0-23.988084L630.420031 273.269791c3.21471-3.21471 7.474231-4.985658 11.992826-4.985658s8.779332 1.770949 11.992826 4.985658l123.566243 123.565026c3.235387 3.235387 5.005119 7.548426 4.985658 12.144865-0.020677 4.497918-1.762435 8.675946-4.907815 11.766592L654.207424 544.588618C650.992714 547.802112 646.733193 549.571844 642.213382 549.571844z"  p-id="6158"></path></svg>